<svg width="25.000000" height="25.000000" viewBox="0 0 25 25" fill="none" xmlns="http://www.w3.org/2000/svg" xmlns:xlink="http://www.w3.org/1999/xlink">
	<desc>
			Created with Pixso.
	</desc>
	<defs/>
	<path id="Vector" d="M24.77 20.08L17.18 12.5L24.77 4.91C24.91 4.76 24.99 4.57 24.99 4.36C24.99 4.15 24.91 3.95 24.77 3.81L21.18 0.22C21.04 0.08 20.84 0 20.63 0C20.42 0 20.23 0.08 20.08 0.22L12.5 7.81L4.91 0.22C4.76 0.08 4.57 0 4.36 0C4.15 0 3.95 0.08 3.81 0.22L0.22 3.81C0.08 3.95 0 4.15 0 4.36C0 4.57 0.08 4.76 0.22 4.91L7.81 12.5L0.22 20.08C0.08 20.23 0 20.42 0 20.63C0 20.84 0.08 21.04 0.22 21.18L3.81 24.77C3.95 24.91 4.15 25 4.36 25C4.57 25 4.76 24.91 4.91 24.77L12.5 17.18L20.08 24.77C20.23 24.91 20.42 25 20.63 25C20.84 25 21.04 24.91 21.18 24.77L24.77 21.18C24.91 21.04 25 20.84 25 20.63C25 20.42 24.91 20.23 24.77 20.08Z" fill="#FFFFFF" fill-opacity="1.000000" fill-rule="nonzero"/>
</svg>
